<?xml version="1.0" encoding="utf-8"?>
<!-- Generator: Adobe Illustrator 27.5.0, SVG Export Plug-In . SVG Version: 6.00 Build 0)  -->
<svg version="1.1" xmlns="http://www.w3.org/2000/svg" xmlns:xlink="http://www.w3.org/1999/xlink" x="0px" y="0px"
	 viewBox="0 0 500 500" style="enable-background:new 0 0 500 500;" xml:space="preserve">
<g id="Background_Complete">
	<g>
		<rect y="382.398" style="fill:#EBEBEB;" width="500" height="0.25"/>
		<rect x="416.779" y="398.494" style="fill:#EBEBEB;" width="33.122" height="0.25"/>
		<rect x="322.527" y="401.208" style="fill:#EBEBEB;" width="8.693" height="0.25"/>
		<rect x="396.586" y="389.208" style="fill:#EBEBEB;" width="19.192" height="0.25"/>
		<rect x="52.459" y="390.888" style="fill:#EBEBEB;" width="43.193" height="0.25"/>
		<rect x="104.556" y="390.888" style="fill:#EBEBEB;" width="6.333" height="0.25"/>
		<rect x="131.471" y="395.111" style="fill:#EBEBEB;" width="93.676" height="0.25"/>
		<path style="fill:#EBEBEB;" d="M237.014,337.8H43.915c-3.147,0-5.708-2.561-5.708-5.708V60.66c0-3.147,2.561-5.708,5.708-5.708
			h193.099c3.146,0,5.707,2.561,5.707,5.708v271.432C242.721,335.239,240.16,337.8,237.014,337.8z M43.915,55.203
			c-3.01,0-5.458,2.448-5.458,5.458v271.432c0,3.01,2.448,5.458,5.458,5.458h193.099c3.009,0,5.457-2.448,5.457-5.458V60.66
			c0-3.009-2.448-5.458-5.457-5.458H43.915z"/>
		<path style="fill:#EBEBEB;" d="M453.31,337.8H260.212c-3.147,0-5.707-2.561-5.707-5.708V60.66c0-3.147,2.561-5.708,5.707-5.708
			H453.31c3.148,0,5.708,2.561,5.708,5.708v271.432C459.019,335.239,456.458,337.8,453.31,337.8z M260.212,55.203
			c-3.009,0-5.457,2.448-5.457,5.458v271.432c0,3.01,2.448,5.458,5.457,5.458H453.31c3.01,0,5.458-2.448,5.458-5.458V60.66
			c0-3.009-2.448-5.458-5.458-5.458H260.212z"/>
	</g>
	<g>
		<g>
			<polygon style="fill:#E0E0E0;" points="378.273,319.65 378.273,333.85 384.271,338.211 356.268,338.211 365.214,334.895 
				365.214,320.641 			"/>
			<path style="fill:#E0E0E0;" d="M302.74,337.802v44.73h124.996v-44.73H302.74z M304.991,340.7h97.837v14.62h-97.837V340.7z"/>
			<path style="fill:#EBEBEB;" d="M302.74,337.802v44.73h103.098v-44.73H302.74z M304.991,340.7h97.837v14.62h-97.837V340.7z"/>
			
				<rect x="304.99" y="340.703" transform="matrix(-1 -1.224647e-16 1.224647e-16 -1 630.1444 696.0228)" style="fill:#E0E0E0;" width="20.165" height="14.617"/>
			
				<rect x="377.881" y="348.011" transform="matrix(-1 -1.224647e-16 1.224647e-16 -1 780.7087 703.3311)" style="fill:#E0E0E0;" width="24.948" height="7.308"/>
			
				<rect x="357.26" y="350.979" transform="matrix(-1 -1.224647e-16 1.224647e-16 -1 733.3013 706.2983)" style="fill:#E0E0E0;" width="18.781" height="4.341"/>
			
				<rect x="335.027" y="346.44" transform="matrix(-1 -1.224647e-16 1.224647e-16 -1 687.9462 701.7606)" style="fill:#E0E0E0;" width="17.892" height="8.88"/>
			<polygon style="fill:#E0E0E0;" points="385.095,358.503 385.631,360.25 392.812,360.25 393.348,358.503 402.828,358.503 
				402.828,377.909 371.363,377.909 371.363,358.503 			"/>
			<polygon style="fill:#E0E0E0;" points="347.703,358.503 348.239,360.25 355.42,360.25 355.956,358.503 369.688,358.503 
				369.688,377.909 338.223,377.909 338.223,358.503 			"/>
			<polygon style="fill:#E0E0E0;" points="318.816,358.503 319.352,360.25 326.533,360.25 327.069,358.503 336.548,358.503 
				336.548,377.909 305.083,377.909 305.083,358.503 			"/>
			<g>
				<path style="fill:#E0E0E0;" d="M321.02,328.135h92.99c1.95,0,3.53-1.581,3.53-3.53v-53.394c0-1.95-1.581-3.53-3.53-3.53h-92.99
					c-1.95,0-3.53,1.581-3.53,3.53v53.394C317.49,326.554,319.071,328.135,321.02,328.135z"/>
				<path style="fill:#E6E6E6;" d="M318.669,328.135h92.99c1.95,0,3.53-1.581,3.53-3.53v-53.394c0-1.95-1.581-3.53-3.53-3.53h-92.99
					c-1.95,0-3.53,1.581-3.53,3.53v53.394C315.139,326.554,316.719,328.135,318.669,328.135z"/>
				
					<rect x="337.876" y="250.822" transform="matrix(-1.836970e-16 1 -1 -1.836970e-16 663.0714 -67.2564)" style="fill:#F0F0F0;" width="54.576" height="94.172"/>
			</g>
		</g>
		<g>
			<rect x="72.512" y="107.642" style="fill:#EBEBEB;" width="118.634" height="122.582"/>
			<rect x="76.657" y="107.642" style="fill:#F0F0F0;" width="118.634" height="122.582"/>
			<rect x="79.648" y="110.548" style="fill:#E0E0E0;" width="112.498" height="116.828"/>
			<rect x="79.646" y="110.547" style="fill:#F5F5F5;" width="109.689" height="116.826"/>
			<rect x="133.399" y="110.548" style="fill:#EBEBEB;" width="2.227" height="116.828"/>
			<polygon style="fill:#FFFFFF;" points="148.407,110.547 179.671,227.372 182.672,227.372 151.408,110.547 			"/>
			<rect x="134.671" y="108.746" style="fill:#F0F0F0;" width="1.909" height="120.869"/>
			<polygon style="fill:#FFFFFF;" points="159.754,110.547 189.335,221.106 189.335,160.335 176.016,110.547 			"/>
			<polygon style="fill:#FFFFFF;" points="79.646,121.147 79.646,132.362 105.075,227.372 108.076,227.372 			"/>
			<polygon style="fill:#FFFFFF;" points="79.646,143.792 79.646,204.562 85.747,227.372 102.009,227.372 			"/>
		</g>
		<g>
			<rect x="327.718" y="114.627" style="fill:#E6E6E6;" width="71.828" height="87.401"/>
			<polygon style="fill:#E0E0E0;" points="383.113,180.379 345.366,143.281 386.203,136.542 			"/>
			<polygon style="fill:#F0F0F0;" points="346.278,171.585 344.409,143.136 372.828,150.116 374.892,171.884 			"/>
			
				<ellipse transform="matrix(0.7071 -0.7071 0.7071 0.7071 19.2887 309.6755)" style="fill:#FAFAFA;" cx="383.456" cy="131.554" rx="11.473" ry="11.473"/>
			<path style="fill:#E0E0E0;" d="M349.989,181.728c0-3.073-2.491-5.564-5.564-5.564c-3.073,0-5.564,2.491-5.564,5.564
				c0,3.073,2.491,5.564,5.564,5.564C347.498,187.292,349.989,184.801,349.989,181.728z"/>
			<polygon style="fill:#F5F5F5;" points="345.746,191.507 361.814,181.728 348.307,170.6 			"/>
			
				<rect x="364.724" y="125.744" transform="matrix(-1 -1.224647e-16 1.224647e-16 -1 732.606 321.2792)" style="fill:#E0E0E0;" width="3.158" height="69.791"/>
			
				<rect x="334.463" y="125.744" transform="matrix(-1 -1.224647e-16 1.224647e-16 -1 673.0118 318.1918)" style="fill:#EBEBEB;" width="4.086" height="66.703"/>
			
				<rect x="371.458" y="171.884" transform="matrix(-1 -1.224647e-16 1.224647e-16 -1 763.7946 364.646)" style="fill:#EBEBEB;" width="20.878" height="20.878"/>
		</g>
		<g>
			<path style="fill:#EBEBEB;" d="M132.903,338.572l-13.219-38.101c0,0,18.335,13.593,18.213-1.478
				c-0.122-15.071-8.353-3.367-11.211-8.935s8.134-5.507,4.277-13.949c-3.857-8.442-14.818,4.529-16.755-2.95
				c-1.936-7.479-5.023-11.282-13.005-10.611c0,0-4.314,9.84,0.974,16.948c5.288,7.108-13.08,1.414-11.214,8.565
				c1.866,7.151,7.999,13.393,10.701,8.357c2.701-5.036,6.129,4.614,1.512,7.098c-4.617,2.484,6.037,13.253,8.374,7.609
				c2.338-5.645,6.002-10.671,6.002-10.671l12.183,40.765L132.903,338.572z"/>
			<path style="fill:#E6E6E6;" d="M146.527,338.908l14.903-24.366c0,0-14.741,6.635-12.379-3.774
				c2.362-10.409,6.288-1.068,9.107-4.488c2.819-3.42-4.796-5.04-0.852-10.298c3.944-5.259,9.569,5.372,12.039,0.49
				c2.47-4.882,5.18-7.048,10.602-5.377c0,0,1.499,7.46-3.235,11.58c-4.733,4.119,8.837,2.954,6.465,7.62
				c-2.372,4.666-7.559,8.058-8.667,4.166c-1.109-3.893-4.938,2.266-2.119,4.683c2.82,2.417-6.179,8.258-6.944,3.999
				c-0.765-4.259-2.541-8.29-2.541-8.29l-14.589,26.366L146.527,338.908z"/>
			<path style="fill:#F5F5F5;" d="M136.49,339.142l6.825-39.25c0,0-15.713,16.17-17.992,1.457
				c-2.279-14.713,7.607-4.612,9.508-10.495c1.9-5.883-8.807-4.075-6.39-12.919c2.417-8.845,15.168,2.057,15.865-5.543
				c0.698-7.6,3.102-11.799,10.991-12.415c0,0,5.772,8.907,1.747,16.678c-4.025,7.772,12.977-0.703,12.296,6.566
				c-0.682,7.269-5.668,14.33-9.103,9.851c-3.435-4.48-5.242,5.474-0.344,7.161c4.897,1.687-3.776,13.882-6.954,8.751
				c-3.177-5.131-7.55-9.448-7.55-9.448l-5.39,41.683L136.49,339.142z"/>
			<g>
				<path style="fill:#EBEBEB;" d="M128.036,383.272h23.428c1.638,0,2.993-1.275,3.094-2.91l2.483-40.408
					c0.11-1.783-1.307-3.29-3.094-3.29h-28.395c-1.787,0-3.204,1.507-3.094,3.29l2.483,40.408
					C125.042,381.998,126.398,383.272,128.036,383.272z"/>
				<path style="fill:#F5F5F5;" d="M122.753,341.218h34.285c1.574,0,2.899-1.18,3.079-2.744v0c0.213-1.841-1.226-3.455-3.079-3.455
					h-34.285c-1.853,0-3.292,1.615-3.079,3.455v0C119.854,340.038,121.178,341.218,122.753,341.218z"/>
			</g>
		</g>
	</g>
</g>
<g id="Background_Simple" style="display:none;">
	<g style="display:inline;">
		<path style="fill:#407BFF;" d="M206.58,75.967c43.536,4.719,72.184,38.873,86.423,77.962c9.802,26.908,6.661,63.411,33.872,80.603
			c13.223,8.352,29.117,5.661,43.784,8.201c44.069,7.633,56.275,55.844,37.61,92.432c-21.999,43.124-80.448,58.48-119.909,30.215
			c-13.771-9.864-24.602-23.379-33.292-37.926c-16.066-26.895-25.909-43.682-60.531-37.053c-37.826,7.242-75.622-2.008-97.242-36.45
			c-19.24-30.652-22.954-69.63-10.13-103.498C105.509,102.001,154.831,70.357,206.58,75.967z"/>
		<path style="opacity:0.9;fill:#FFFFFF;" d="M206.58,75.967c43.536,4.719,72.184,38.873,86.423,77.962
			c9.802,26.908,6.661,63.411,33.872,80.603c13.223,8.352,29.117,5.661,43.784,8.201c44.069,7.633,56.275,55.844,37.61,92.432
			c-21.999,43.124-80.448,58.48-119.909,30.215c-13.771-9.864-24.602-23.379-33.292-37.926
			c-16.066-26.895-25.909-43.682-60.531-37.053c-37.826,7.242-75.622-2.008-97.242-36.45c-19.24-30.652-22.954-69.63-10.13-103.498
			C105.509,102.001,154.831,70.357,206.58,75.967z"/>
	</g>
</g>
<g id="Shadow_1_">
	<ellipse id="_x3C_Path_x3E__359_" style="fill:#F5F5F5;" cx="250" cy="416.238" rx="193.889" ry="11.323"/>
</g>
<g id="Device">
	<g>
		<path style="fill:#263238;" d="M356.331,119.633V401.1c0,2.471-1.986,4.391-4.458,4.391H200.627c-2.272,0-3.983-1.758-3.983-4.03
			v-282.19c0-1.967,1.445-3.688,3.412-3.688h35.911c1.121,0,2.139,0.732,2.557,1.787l1.644,4.049
			c0.418,1.046,1.435,1.768,2.557,1.768h67.61c1.122,0,2.139-0.694,2.557-1.739l1.644-4.068c0.418-1.055,1.435-1.796,2.557-1.796
			h35.34C354.601,115.584,356.331,117.466,356.331,119.633z"/>
		<rect x="196.645" y="134.356" style="fill:#407BFF;" width="159.687" height="251.174"/>
		<rect x="196.645" y="134.356" style="opacity:0.7;fill:#FFFFFF;enable-background:new    ;" width="159.687" height="251.174"/>
		<g>
			
				<rect x="215.512" y="124.938" transform="matrix(-1 -1.224647e-16 1.224647e-16 -1 433.0902 252.6318)" style="opacity:0.6;fill:#FFFFFF;enable-background:new    ;" width="2.066" height="2.755"/>
			
				<rect x="212.144" y="124.02" transform="matrix(-1 -1.224647e-16 1.224647e-16 -1 426.355 251.7128)" style="opacity:0.6;fill:#FFFFFF;enable-background:new    ;" width="2.066" height="3.674"/>
			
				<rect x="208.777" y="123.101" transform="matrix(-1 -1.224647e-16 1.224647e-16 -1 419.6199 250.7939)" style="opacity:0.6;fill:#FFFFFF;enable-background:new    ;" width="2.066" height="4.593"/>
			
				<rect x="205.409" y="122.182" transform="matrix(-1 -1.224647e-16 1.224647e-16 -1 412.8847 249.8748)" style="opacity:0.6;fill:#FFFFFF;enable-background:new    ;" width="2.066" height="5.512"/>
		</g>
		<g>
			<rect x="336.605" y="123.933" style="opacity:0.6;fill:#FFFFFF;enable-background:new    ;" width="1.225" height="2.755"/>
			
				<rect x="338.672" y="122.928" transform="matrix(-1 -1.224647e-16 1.224647e-16 -1 687.1018 250.6212)" style="opacity:0.6;fill:#FFFFFF;enable-background:new    ;" width="9.758" height="4.765"/>
		</g>
		<g>
			<path style="fill:#407BFF;" d="M253.788,168.149c0,4.258-1.102,8.251-3.042,11.72c-0.143,0.257-0.285,0.504-0.437,0.751
				c-1.435,2.376-3.26,4.477-5.408,6.216c-0.038,0.038-0.076,0.066-0.124,0.105c-2.015,1.625-4.306,2.928-6.777,3.84
				c-0.019,0-0.029,0.009-0.038,0.009c-2.585,0.951-5.37,1.464-8.279,1.464c-0.912,0-1.806-0.048-2.69-0.152
				c-1.521-0.162-2.994-0.475-4.42-0.913c-3.545-1.093-6.749-2.985-9.382-5.475c-0.01,0-0.019-0.009-0.028-0.019
				c-4.667-4.391-7.585-10.627-7.585-17.546c0-13.317,10.789-24.105,24.105-24.105C242.991,144.044,253.788,154.832,253.788,168.149
				z"/>
			<path style="fill:#263238;" d="M250.747,179.869c-0.143,0.257-0.285,0.504-0.437,0.751c-5.598-0.19-11.368,0.694-16.368,1.854
				c-0.608,0.143-1.217,0.295-1.797,0.437c-0.409,0.105-0.817,0.219-1.216,0.323c-1.531,0.409-2.956,0.836-4.249,1.245
				c-0.2,0.067-0.39,0.124-0.57,0.19c-0.143,0.038-0.276,0.085-0.409,0.133h-0.009c-1.492,0.494-2.757,0.951-3.735,1.321
				c-1.445,0.542-2.272,0.903-2.272,0.903s-0.542-0.656-1.302-1.92c-0.019-0.038-0.038-0.066-0.066-0.104c0,0,0,0,0-0.01
				c-2.167-3.641-5.969-12.034-4.192-23.963c1.987-13.345,13.07-12.499,17.005-11.758c0.865,0.152,1.388,0.314,1.388,0.314
				s12.395,2.928,12.851,10.646c0.057,0.96,0.19,1.996,0.38,3.08C246.831,169.622,249.777,177.417,250.747,179.869z"/>
			<path style="fill:#407BFF;" d="M238.001,190.781c-0.019,0-0.029,0.009-0.038,0.009c-2.585,0.951-5.37,1.464-8.279,1.464
				c-0.912,0-1.806-0.048-2.69-0.152c-1.521-0.162-2.994-0.475-4.42-0.913l-0.77-6.292l-0.371-3.013l16.492,2.338l0.019,1.407
				l0.048,4.144v0.304L238.001,190.781z"/>
			<g>
				<path style="fill:#263238;" d="M244.778,186.941c-2.015,1.625-4.306,2.928-6.777,3.84c-0.019,0-0.029,0.009-0.038,0.009
					c-2.585,0.951-5.37,1.464-8.279,1.464c-0.912,0-1.806-0.048-2.69-0.152c-1.521-0.162-2.994-0.475-4.42-0.913
					c-3.545-1.093-6.749-2.985-9.382-5.475c-0.01,0-0.019-0.009-0.028-0.019c0.76-0.114,1.53-0.209,2.3-0.304l0.19-0.019
					c0.903-0.104,1.815-0.19,2.728-0.266c1.074-0.086,2.148-0.152,3.232-0.2c0.067,0,0.123-0.01,0.19-0.01
					c0.428-0.019,0.874-0.028,1.312-0.048c0.532-0.019,1.055-0.028,1.578-0.038c0.323-0.01,0.665-0.01,0.998-0.01h0.836
					c2.034,0.01,4.059,0.076,6.083,0.219c0.694,0.048,1.388,0.105,2.072,0.171c0.361,0.038,0.722,0.067,1.083,0.105
					c0.523,0.076,1.055,0.152,1.587,0.247c0.114,0.01,0.228,0.029,0.342,0.048l0.247,0.038h0.019
					c0.628,0.105,1.245,0.219,1.854,0.323c0.295,0.048,0.58,0.114,0.875,0.162c0.18,0.038,0.361,0.066,0.551,0.105
					c0.19,0.038,0.399,0.076,0.59,0.114c0.342,0.066,0.656,0.133,0.979,0.2c0.238,0.048,0.475,0.095,0.703,0.143
					C243.96,186.77,244.388,186.865,244.778,186.941z"/>
			</g>
			<path style="fill:#E4897B;" d="M233.778,191.034c-6.871-1.172-8.826-4.213-8.826-4.213c2.934-2.542,2.584-6.491,1.964-8.971
				c-0.335-1.372-0.758-2.295-0.758-2.295l8.251,1.9c-0.274,1.364-0.418,2.516-0.467,3.489c-0.062,1.068-0.001,1.915,0.128,2.582
				c0.462,2.509,1.877,2.602,1.877,2.602C237.295,188.917,233.778,191.034,233.778,191.034z"/>
			<path style="opacity:0.2;enable-background:new    ;" d="M233.943,180.944c-0.062,1.068-0.001,1.915,0.128,2.582
				c-3.284-0.571-5.677-3.316-7.155-5.675c-0.335-1.372-0.758-2.295-0.758-2.295l8.251,1.9
				C234.135,178.819,233.992,179.971,233.943,180.944z"/>
			<g>
				<g>
					<path style="fill:#E4897B;" d="M232.823,153.822c7.809,0.335,10.143,4.624,10.369,12.696
						c0.283,10.087-2.253,17.136-11.925,14.569C218.133,177.6,219.855,153.265,232.823,153.822z"/>
					<path style="fill:#DE5753;" d="M238.163,165.864c0,0,0.995,2.086,2.133,3.336c0,0-0.714,1.033-2.096,0.795L238.163,165.864z"/>
					
						<path style="fill:none;stroke:#263238;stroke-width:0.7247;stroke-linecap:round;stroke-linejoin:round;stroke-miterlimit:10;" d="
						M233.564,159.624c0,0-2.182-0.379-3.437,1.035"/>
					
						<path style="fill:none;stroke:#263238;stroke-width:0.7247;stroke-linecap:round;stroke-linejoin:round;stroke-miterlimit:10;" d="
						M239.254,159.538c0,0,1.401-0.451,3.085,0.776"/>
					<path style="fill:#263238;" d="M223.724,166.617c0,0,3.926-6.259,3.586-11.236c0,0,15.746-5.657,15.835,10.082
						c0,0,2.111-13.882-11.3-14.769c-13.389-0.886-14.196,18.754-7.515,24.903C224.331,175.597,221.293,170.532,223.724,166.617z"/>
					<path style="fill:#E4897B;" d="M224.929,168.32c0.002-1.26-1.204-3.443-3.553-3.288c-2.431,0.16-3.798,5.078,2.17,6.531
						C224.402,171.771,224.925,170.948,224.929,168.32z"/>
					<g>
						<path style="fill:#263238;" d="M238.354,172.297c-0.628,0.836-1.425,2.484-1.425,2.484c-0.163-0.045-0.325-0.091-0.484-0.145
							c-2.186-0.671-2.978-1.704-3.194-2.647c-0.116-0.516-0.053-1.009,0.049-1.395c0.113-0.448,0.296-0.742,0.296-0.742
							c0.946,1.048,2.936,1.831,4.016,2.204C238.063,172.218,238.354,172.297,238.354,172.297z"/>
						<path style="fill:#FFFFFF;" d="M237.613,172.056l-0.439,0.721c-2.057-0.637-3.42-1.362-3.873-2.184
							c0.113-0.448,0.296-0.742,0.296-0.742C234.543,170.901,236.532,171.683,237.613,172.056z"/>
						<path style="fill:#DE5753;" d="M236.445,174.636c-2.186-0.671-2.978-1.704-3.194-2.647c0.736,0.257,1.595,0.649,2.28,1.226
							C236.055,173.654,236.314,174.162,236.445,174.636z"/>
					</g>
					<path style="fill:#263238;" d="M232.636,154.404c0,0-3.698,12.714-11.781,12.202c-8.083-0.512,5.1-16.245,5.1-16.245
						s13.417-4.415,19.63,2.876c6.213,7.291-2.44,12.225-2.44,12.225S244.07,155.533,232.636,154.404z"/>
					
						<path style="fill:none;stroke:#263238;stroke-width:0.5;stroke-linecap:round;stroke-linejoin:round;stroke-miterlimit:10;" d="
						M232.597,153.488c0,0,0.578,8.814-5.955,11.618"/>
					<g>
						<path style="fill:#263238;" d="M233.558,165.417c0.072,0.604-0.196,1.132-0.599,1.18c-0.403,0.048-0.787-0.403-0.859-1.007
							c-0.072-0.604,0.196-1.132,0.599-1.18C233.102,164.363,233.486,164.813,233.558,165.417z"/>
						<path style="fill:#263238;" d="M232.535,164.46l1.252-0.671C233.787,163.788,233.264,164.971,232.535,164.46z"/>
					</g>
					<g>
						<path style="fill:#263238;" d="M241.051,164.399c0.072,0.604-0.196,1.132-0.599,1.18c-0.403,0.048-0.787-0.403-0.859-1.007
							c-0.072-0.604,0.196-1.132,0.599-1.18C240.594,163.344,240.979,163.795,241.051,164.399z"/>
						<path style="fill:#263238;" d="M240.027,163.441l1.252-0.671C241.279,162.77,240.757,163.953,240.027,163.441z"/>
					</g>
				</g>
			</g>
			<g>
				<path style="fill:#407BFF;" d="M244.901,186.836c-0.038,0.038-0.076,0.066-0.124,0.105c-2.015,1.625-4.306,2.928-6.777,3.84
					c-0.019,0-0.029,0.009-0.038,0.009l0.029-0.713l0.009-0.276l-0.009-0.029l-1.312-2.652l0.675-1.578l0.57-1.321l0.58,1.255
					L244.901,186.836z"/>
				<path style="opacity:0.6;fill:#FFFFFF;enable-background:new    ;" d="M244.901,186.836c-0.038,0.038-0.076,0.066-0.124,0.105
					c-2.015,1.625-4.306,2.928-6.777,3.84c-0.019,0-0.029,0.009-0.038,0.009l0.029-0.713l0.009-0.276l-0.009-0.029l-1.312-2.652
					l0.675-1.578l0.57-1.321l0.58,1.255L244.901,186.836z"/>
			</g>
			<g>
				<path style="fill:#407BFF;" d="M229.874,186.912l-2.738,3.431l-0.143,1.758c-1.521-0.162-2.994-0.475-4.42-0.913
					c-3.545-1.093-6.749-2.985-9.382-5.475l2.272-0.323l0.19-0.019l4.81-0.684l0.969-2.804l4.895,2.918l3.536,2.11H229.874z"/>
				<path style="opacity:0.6;fill:#FFFFFF;enable-background:new    ;" d="M229.864,186.912l-2.728,3.431l-0.143,1.758
					c-1.521-0.162-2.994-0.475-4.42-0.913c-3.545-1.093-6.749-2.985-9.382-5.475l2.462-0.342l4.81-0.675v-0.009l0.969-2.804
					l4.895,2.918L229.864,186.912z"/>
			</g>
		</g>
		<g>
			<path style="fill:#FFFFFF;" d="M255.437,188.528c0,3.617-2.932,6.549-6.549,6.549c-3.617,0-6.549-2.932-6.549-6.549
				c0-3.617,2.932-6.549,6.549-6.549C252.505,181.979,255.437,184.911,255.437,188.528z"/>
			<path style="fill:#263238;" d="M254.478,188.528c0,3.087-2.503,5.59-5.59,5.59c-3.087,0-5.59-2.503-5.59-5.59
				c0-3.087,2.503-5.59,5.59-5.59C251.975,182.938,254.478,185.441,254.478,188.528z"/>
			<polyline style="fill:none;stroke:#FFFFFF;stroke-miterlimit:10;" points="246.021,188.439 248.59,190.702 251.755,186.355 			
				"/>
		</g>
		<g>
			<path style="fill:#263238;" d="M268.592,159.297h52.553c0.619,0,1.121-0.502,1.121-1.121c0-0.619-0.502-1.121-1.121-1.121
				h-52.553c-0.619,0-1.121,0.502-1.121,1.121C267.47,158.795,267.973,159.297,268.592,159.297z"/>
			<path style="fill:#263238;" d="M333.096,163.467h-64.798c-0.457,0-0.827,0.37-0.827,0.827c0,0.457,0.37,0.827,0.827,0.827h64.798
				c0.457,0,0.827-0.37,0.827-0.827C333.923,163.837,333.552,163.467,333.096,163.467z"/>
			<path style="fill:#263238;" d="M314.085,168.198h-45.788c-0.457,0-0.827,0.37-0.827,0.827c0,0.457,0.37,0.827,0.827,0.827h45.788
				c0.457,0,0.827-0.37,0.827-0.827C314.913,168.568,314.542,168.198,314.085,168.198z"/>
		</g>
		<rect x="198.549" y="198.796" style="fill:#407BFF;" width="155.876" height="155.876"/>
		<polygon style="fill:#407BFF;" points="349.413,371.541 345.017,367.752 340.62,371.541 340.62,361.116 349.413,361.116 		"/>
		<path style="fill:#407BFF;" d="M333.552,361.116h-6.618c-0.906,0-1.641,0.735-1.641,1.641v4.526c0,0.906,0.735,1.641,1.641,1.641
			h2.248v2.617l1.707-2.617h2.663c0.906,0,1.641-0.735,1.641-1.641v-4.526C335.193,361.851,334.458,361.116,333.552,361.116z"/>
		<path style="fill:#407BFF;" d="M320.284,362.363c-1.221-2.009-3.581-1.253-4.806,0.295c-1.208-1.562-3.558-2.345-4.802-0.35
			c-2.098,3.363,2.167,6.514,4.183,7.75c0.228,0.142,0.417,0.259,0.575,0.351c0.159-0.09,0.349-0.205,0.579-0.344
			C318.042,368.852,322.342,365.75,320.284,362.363z"/>
		<g style="opacity:0.3;enable-background:new    ;">
			<polygon style="opacity:0.7;fill:#FFFFFF;enable-background:new    ;" points="322.604,211.923 328.499,211.923 325.552,219.571 
							"/>
			<polygon style="opacity:0.7;fill:#FFFFFF;enable-background:new    ;" points="341.614,249.997 343.398,255.615 335.217,255.122 
							"/>
			<polygon style="fill:#FFFFFF;" points="339.307,225.339 336.506,232.21 345.017,235.175 345.017,229.615 			"/>
			<polygon style="fill:#FFFFFF;" points="228.971,210.077 233.303,210.077 228.971,215.747 			"/>
			<polygon style="fill:#FFFFFF;" points="212.69,238.033 217.595,236.912 218.956,241.123 213.309,243.087 			"/>
			<circle style="fill:#FFFFFF;" cx="262.275" cy="213.835" r="1.912"/>
			<path style="fill:#FFFFFF;" d="M234.445,341.907c0,2.092-1.696,3.788-3.788,3.788c-2.092,0-3.788-1.696-3.788-3.788
				c0-2.092,1.696-3.788,3.788-3.788C232.749,338.118,234.445,339.815,234.445,341.907z"/>
			<polygon style="fill:#FFFFFF;" points="216.187,308.978 217.595,311.352 210.819,314.253 209.276,312.67 			"/>
			<polygon style="fill:#FFFFFF;" points="260.363,347.783 259.044,344.429 264.187,344.429 			"/>
			<polygon style="fill:#FFFFFF;" points="315.072,344.429 315.469,340.7 322.527,342.565 322.527,348.011 			"/>
			<polygon style="fill:#FFFFFF;" points="330.243,325.196 336.548,325.196 333.396,328.931 			"/>
			<polygon style="fill:#FFFFFF;" points="340.62,286.824 339.307,294.736 340.761,296.055 342.121,286.824 			"/>
			<polygon style="fill:#FFFFFF;" points="205.229,263.615 210.819,267.68 206.824,270.621 			"/>
			<circle style="fill:#FFFFFF;" cx="230.031" cy="230.85" r="0.626"/>
			<circle style="fill:#FFFFFF;" cx="310.991" cy="223.091" r="0.882"/>
			<path style="fill:#FFFFFF;" d="M287.374,343.714c0,0.395-0.32,0.715-0.715,0.715c-0.395,0-0.714-0.32-0.714-0.715
				c0-0.395,0.32-0.714,0.714-0.714C287.054,343,287.374,343.32,287.374,343.714z"/>
			<polygon style="fill:#FFFFFF;" points="295.703,206.648 302.74,205.593 302.74,209.022 295.703,210.077 			"/>
			<polygon style="fill:#FFFFFF;" points="342.121,210.077 344.425,210.077 343.273,212.912 			"/>
			<polygon style="fill:#FFFFFF;" points="209.276,213.835 212.69,213.835 210.983,215.747 			"/>
			<polygon style="fill:#FFFFFF;" points="338.549,347.783 338.223,341.218 343.273,343 			"/>
			<polygon style="fill:#FFFFFF;" points="343.398,310.033 340.761,307.923 340.761,310.033 343.398,311.615 			"/>
			<polygon style="fill:#FFFFFF;" points="208.024,288.934 210.983,291.44 209.504,293.681 205.578,290.537 			"/>
			<polygon style="fill:#FFFFFF;" points="205.578,230.224 209.276,230.224 205.229,231.476 			"/>
		</g>
	</g>
</g>
<g id="Checkmark">
	<g>
		<g>
			<polygon style="fill:#407BFF;" points="270.069,224.227 276.755,217.939 283.381,224.291 291.422,219.864 296.26,227.664 
				305.149,225.376 307.895,234.134 317.073,234.128 317.555,243.294 326.447,245.571 324.634,254.568 332.68,258.985 
				328.687,267.249 335.382,273.528 329.459,280.54 334.382,288.286 326.901,293.605 329.743,302.332 321.174,305.623 
				321.757,314.783 312.639,315.839 310.925,324.857 301.831,323.612 297.928,331.92 289.43,328.453 283.584,335.529 
				276.214,330.058 268.792,335.458 263.014,328.326 254.482,331.71 250.66,323.365 241.555,324.522 239.928,315.488 
				230.821,314.344 231.492,305.19 222.955,301.816 225.882,293.117 218.452,287.726 223.45,280.028 217.595,272.959 
				224.35,266.745 220.437,258.443 228.525,254.104 226.799,245.089 235.713,242.898 236.283,233.738 245.461,233.832 
				248.292,225.101 257.158,227.475 262.071,219.722 			"/>
			<path style="opacity:0.4;enable-background:new    ;" d="M330.459,282.54l5.923-7.012l-6.695-6.279l3.994-8.264l-8.046-4.417
				l1.813-8.998l-8.892-2.277l-0.482-9.166l-9.179,0.006l-2.746-8.758l-8.889,2.288l-4.838-7.8l-8.041,4.427l-6.626-6.352
				l-6.687,6.288l-7.997-4.505l-4.913,7.753l-8.866-2.374l-2.831,8.731l-9.178-0.095l-0.57,9.161l-8.913,2.191l1.726,9.015
				l-8.089,4.339l3.913,8.302l-6.755,6.214l5.855,7.068l-4.998,7.699l7.429,5.39l-2.926,8.7l8.536,3.373l-0.671,9.154l9.107,1.144
				l1.627,9.033l9.105-1.156l3.822,8.345l8.532-3.385l5.777,7.132l7.422-5.4l7.37,5.471l5.846-7.076l8.499,3.467l3.903-8.308
				l9.094,1.244l1.714-9.017l9.118-1.056l-0.582-9.16l8.568-3.291l-2.842-8.727l7.481-5.318L330.459,282.54z M328.616,288.962
				l-6.607,4.696l2.51,7.708l-7.567,2.905l0.514,8.091l-8.053,0.933l-1.514,7.964l-8.031-1.099l-3.447,7.337l-7.506-3.062
				l-5.163,6.249l-6.509-4.832l-6.555,4.77l-5.103-6.3l-7.535,2.989l-3.376-7.369l-8.041,1.021l-1.437-7.978l-8.043-1.011
				l0.593-8.085l-7.54-2.978l2.585-7.685l-6.561-4.76l4.414-6.799l-5.171-6.243l5.966-5.487l-3.456-7.333l7.143-3.832l-1.524-7.961
				l7.872-1.935l0.503-8.091l8.105,0.084l2.5-7.711l7.831,2.097l4.339-6.847l7.063,3.979l5.906-5.553l5.852,5.609l7.1-3.91
				l4.273,6.889l7.851-2.021l2.425,7.735l8.106-0.005l0.425,8.096l7.853,2.01l-1.601,7.947l7.106,3.9l-3.527,7.298l5.913,5.546
				l-5.231,6.191L328.616,288.962z"/>
			<polygon style="opacity:0.4;enable-background:new    ;" points="270.069,224.227 276.755,217.939 283.381,224.291 
				291.422,219.864 296.26,227.664 305.149,225.376 307.895,234.134 317.073,234.128 317.555,243.294 326.447,245.571 
				324.634,254.568 332.68,258.985 328.687,267.249 335.382,273.528 329.459,280.54 334.382,288.286 326.901,293.605 
				329.743,302.332 321.174,305.623 321.757,314.783 312.639,315.839 310.925,324.857 301.831,323.612 297.928,331.92 
				289.43,328.453 283.584,335.529 276.214,330.058 268.792,335.458 263.014,328.326 254.482,331.71 250.66,323.365 
				241.555,324.522 239.928,315.488 230.821,314.344 231.492,305.19 222.955,301.816 225.882,293.117 218.452,287.726 
				223.45,280.028 217.595,272.959 224.35,266.745 220.437,258.443 228.525,254.104 226.799,245.089 235.713,242.898 
				236.283,233.738 245.461,233.832 248.292,225.101 257.158,227.475 262.071,219.722 			"/>
			<path style="fill:#407BFF;" d="M329.459,280.54l5.923-7.012l-6.695-6.279l3.994-8.264l-8.046-4.417l1.813-8.998l-8.892-2.277
				l-0.482-9.166l-9.179,0.006l-2.746-8.758l-8.889,2.288l-4.838-7.8l-8.041,4.427l-6.626-6.352l-6.687,6.288l-7.997-4.505
				l-4.913,7.753l-8.866-2.374l-2.831,8.731l-9.178-0.095l-0.57,9.161l-8.913,2.191l1.726,9.015l-8.089,4.339l3.913,8.302
				l-6.755,6.214l5.855,7.068l-4.998,7.699l7.429,5.39l-2.926,8.7l8.536,3.373l-0.671,9.154l9.107,1.144l1.627,9.033l9.105-1.156
				l3.822,8.345l8.532-3.385l5.777,7.132l7.422-5.4l7.37,5.471l5.846-7.076l8.499,3.467l3.903-8.308l9.094,1.244l1.714-9.017
				l9.118-1.056l-0.582-9.16l8.568-3.291l-2.842-8.727l7.481-5.318L329.459,280.54z M327.616,286.962l-6.607,4.696l2.51,7.708
				l-7.567,2.905l0.514,8.091l-8.053,0.933l-1.514,7.964l-8.031-1.099l-3.447,7.337l-7.506-3.062l-5.163,6.249l-6.509-4.832
				l-6.555,4.77l-5.103-6.3l-7.535,2.989l-3.376-7.369l-8.041,1.021l-1.437-7.978l-8.043-1.011l0.593-8.085l-7.54-2.978l2.585-7.685
				l-6.561-4.76l4.414-6.799l-5.171-6.243l5.966-5.487l-3.456-7.333l7.143-3.832l-1.524-7.961l7.872-1.935l0.503-8.091l8.105,0.084
				l2.5-7.711l7.831,2.097l4.339-6.847l7.063,3.979l5.906-5.553l5.852,5.609l7.1-3.91l4.273,6.889l7.851-2.021l2.425,7.735
				l8.106-0.005l0.425,8.096l7.853,2.01l-1.601,7.947l7.106,3.9l-3.527,7.298l5.913,5.546l-5.231,6.191L327.616,286.962z"/>
			<path style="opacity:0.6;fill:#FFFFFF;enable-background:new    ;" d="M329.459,280.54l5.923-7.012l-6.695-6.279l3.994-8.264
				l-8.046-4.417l1.813-8.998l-8.892-2.277l-0.482-9.166l-9.179,0.006l-2.746-8.758l-8.889,2.288l-4.838-7.8l-8.041,4.427
				l-6.626-6.352l-6.687,6.288l-7.997-4.505l-4.913,7.753l-8.866-2.374l-2.831,8.731l-9.178-0.095l-0.57,9.161l-8.913,2.191
				l1.726,9.015l-8.089,4.339l3.913,8.302l-6.755,6.214l5.855,7.068l-4.998,7.699l7.429,5.39l-2.926,8.7l8.536,3.373l-0.671,9.154
				l9.107,1.144l1.627,9.033l9.105-1.156l3.822,8.345l8.532-3.385l5.777,7.132l7.422-5.4l7.37,5.471l5.846-7.076l8.499,3.467
				l3.903-8.308l9.094,1.244l1.714-9.017l9.118-1.056l-0.582-9.16l8.568-3.291l-2.842-8.727l7.481-5.318L329.459,280.54z
				 M327.616,286.962l-6.607,4.696l2.51,7.708l-7.567,2.905l0.514,8.091l-8.053,0.933l-1.514,7.964l-8.031-1.099l-3.447,7.337
				l-7.506-3.062l-5.163,6.249l-6.509-4.832l-6.555,4.77l-5.103-6.3l-7.535,2.989l-3.376-7.369l-8.041,1.021l-1.437-7.978
				l-8.043-1.011l0.593-8.085l-7.54-2.978l2.585-7.685l-6.561-4.76l4.414-6.799l-5.171-6.243l5.966-5.487l-3.456-7.333l7.143-3.832
				l-1.524-7.961l7.872-1.935l0.503-8.091l8.105,0.084l2.5-7.711l7.831,2.097l4.339-6.847l7.063,3.979l5.906-5.553l5.852,5.609
				l7.1-3.91l4.273,6.889l7.851-2.021l2.425,7.735l8.106-0.005l0.425,8.096l7.853,2.01l-1.601,7.947l7.106,3.9l-3.527,7.298
				l5.913,5.546l-5.231,6.191L327.616,286.962z"/>
			<path style="opacity:0.4;enable-background:new    ;" d="M247.103,273.806c0,0,5.101-0.88,7.606,0
				c2.505,0.88,13.126,19.036,13.126,19.036s20.609-28.338,37.078-40.728c0,0-21.376,19.137-33.766,51.263
				c0,0-4.171,1.846-7.115-1.45c-0.853-0.955-10.427-17.304-12.268-17.918c-1.456-0.485-6.134-0.245-6.134-0.245L247.103,273.806z"
				/>
			<path style="fill:#FFFFFF;" d="M246.103,272.806c0,0,5.101-0.88,7.606,0c2.505,0.88,13.126,19.036,13.126,19.036
				s20.609-28.338,37.078-40.728c0,0-21.376,19.137-33.766,51.263c0,0-4.171,1.846-7.115-1.45
				c-0.853-0.955-10.427-17.304-12.268-17.918c-1.456-0.485-6.134-0.245-6.134-0.245L246.103,272.806z"/>
		</g>
	</g>
</g>
<g id="Plant">
	<g>
		<path style="fill:#407BFF;" d="M388.077,388.552c0,0-5.826-12.711,0.831-25.242s8.586-15.482,4.342-18.049
			c-4.243-2.567-6.19,10.024-6.19,10.024s-3.577-8.662-0.623-17.728c2.953-9.065,4.805-23.831,0.772-25.415
			c-4.033-1.584-0.77,18.42-4.27,25.238c0,0-2.939-7.591-3.423-14.872c-0.484-7.281,0.272-18.908-2.913-21.891
			c-3.185-2.982-5.225-0.919-2.095,15.15c3.13,16.069,3.107,29.131,3.107,29.131s-6.913-21.078-11.553-21.693
			c-4.64-0.615-4.634,6.211-0.662,12.132c3.972,5.921,11.631,16.527,12.887,21.985c0,0-7.588-15.862-14.414-11.001
			c-6.826,4.861,5.941,14.443,11.632,17.905c5.69,3.462,9.642,25.164,9.642,25.164L388.077,388.552z"/>
		<path style="opacity:0.2;enable-background:new    ;" d="M388.077,388.552c0,0-5.826-12.711,0.831-25.242
			s8.586-15.482,4.342-18.049c-4.243-2.567-6.19,10.024-6.19,10.024s-3.577-8.662-0.623-17.728
			c2.953-9.065,4.805-23.831,0.772-25.415c-4.033-1.584-0.77,18.42-4.27,25.238c0,0-2.939-7.591-3.423-14.872
			c-0.484-7.281,0.272-18.908-2.913-21.891c-3.185-2.982-5.225-0.919-2.095,15.15c3.13,16.069,3.107,29.131,3.107,29.131
			s-6.913-21.078-11.553-21.693c-4.64-0.615-4.634,6.211-0.662,12.132c3.972,5.921,11.631,16.527,12.887,21.985
			c0,0-7.588-15.862-14.414-11.001c-6.826,4.861,5.941,14.443,11.632,17.905c5.69,3.462,9.642,25.164,9.642,25.164L388.077,388.552z
			"/>
		<path style="fill:#407BFF;" d="M383.478,393.765c0,0,5.673-12.797-1.133-25.227c-6.806-12.43-8.771-15.353-4.559-17.983
			c4.212-2.63,6.31,9.931,6.31,9.931s3.473-8.715,0.411-17.735c-3.062-9.021-5.091-23.757-1.077-25.401
			c4.014-1.644,0.991,18.407,4.572,25.172c0,0,2.848-7.634,3.244-14.922c0.396-7.288-0.499-18.902,2.65-21.932
			c3.149-3.03,5.214-0.997,2.277,15.117c-2.937,16.114-2.757,29.174-2.757,29.174s6.66-21.18,11.292-21.863
			c4.632-0.684,4.708,6.142,0.808,12.121c-3.9,5.979-11.431,16.699-12.622,22.175c0,0,7.397-15.974,14.281-11.215
			c6.884,4.759-5.767,14.53-11.416,18.077c-5.648,3.546-9.339,25.305-9.339,25.305L383.478,393.765z"/>
		<g>
			<polygon style="fill:#263238;" points="409.642,384.643 362.779,384.643 366.572,418.179 405.85,418.179 			"/>
		</g>
	</g>
</g>
<g id="Character">
	<g>
		<path style="fill:#263238;" d="M99.155,395.437l28.813-2.832v-35.492h11.419v35.481l28.929,2.843
			c2.872,0.282,5.061,2.697,5.061,5.583v4.327h-38.583h-2.117H94.093v-4.327C94.093,398.134,96.283,395.719,99.155,395.437z"/>
		<path style="opacity:0.1;fill:#FFFFFF;enable-background:new    ;" d="M99.155,395.437l28.813-2.832v-35.492h11.419v35.481
			l28.929,2.843c2.872,0.282,5.061,2.697,5.061,5.583v4.327h-38.583h-2.117H94.093v-4.327
			C94.093,398.134,96.283,395.719,99.155,395.437z"/>
		
			<ellipse transform="matrix(0.9871 -0.1602 0.1602 0.9871 -63.5894 32.5867)" style="fill:#263238;" cx="170.327" cy="410.713" rx="7.466" ry="7.466"/>
		
			<ellipse transform="matrix(0.1602 -0.9871 0.9871 0.1602 -323.8274 440.8124)" style="fill:#263238;" cx="97.143" cy="410.713" rx="7.466" ry="7.466"/>
		<path style="fill:#263238;" d="M130.134,365.816h7.086c2.283,0,4.133-1.85,4.133-4.133V329.75h-15.352v31.933
			C126.001,363.966,127.851,365.816,130.134,365.816z"/>
		<path style="opacity:0.2;fill:#FFFFFF;enable-background:new    ;" d="M130.134,365.816h7.086c2.283,0,4.133-1.85,4.133-4.133
			V329.75h-15.352v31.933C126.001,363.966,127.851,365.816,130.134,365.816z"/>
		<path style="fill:#263238;" d="M93.798,267.143c0,0,8.556,53.411,25.437,62.607h-17.163c0,0-16.954-18.196-22.119-62.607H93.798z"
			/>
		<path style="opacity:0.1;fill:#FFFFFF;enable-background:new    ;" d="M93.798,267.143c0,0,8.556,53.411,25.437,62.607h-17.163
			c0,0-16.954-18.196-22.119-62.607H93.798z"/>
		<path style="fill:#407BFF;" d="M168.146,322.199h-66.921c-2.761,0-5,2.239-5,5v6.689h76.921v-6.689
			C173.146,324.437,170.908,322.199,168.146,322.199z"/>
		<g>
			<path style="fill:#263238;" d="M174.341,328.043H95.03c-1.111,0-2.011,0.901-2.011,2.011v1.822c0,1.111,0.901,2.011,2.011,2.011
				h79.311c1.111,0,2.011-0.901,2.011-2.011v-1.822C176.352,328.944,175.452,328.043,174.341,328.043z"/>
			<path style="opacity:0.6;fill:#FFFFFF;enable-background:new    ;" d="M174.341,328.043H95.03c-1.111,0-2.011,0.901-2.011,2.011
				v1.822c0,1.111,0.901,2.011,2.011,2.011h79.311c1.111,0,2.011-0.901,2.011-2.011v-1.822
				C176.352,328.944,175.452,328.043,174.341,328.043z"/>
		</g>
		<path style="fill:#407BFF;" d="M77.924,277.996h27.495c8.055,0,13.286-6.459,11.686-14.426l-2.137-10.635
			c-1.601-7.967-9.428-14.426-17.482-14.426H69.991c-8.055,0-13.286,6.459-11.686,14.426l2.137,10.635
			C62.043,271.537,69.87,277.996,77.924,277.996z"/>
	</g>
	<g>
		<polygon style="fill:#407BFF;" points="103.814,225.339 121.332,225.339 122.941,235.791 107.356,238.509 		"/>
		<polygon style="fill:#E4897B;" points="220.151,370.507 213.864,372.967 209.339,364.444 205.229,356.69 212.2,352.513 
			216.41,362.029 		"/>
		<polygon style="opacity:0.2;enable-background:new    ;" points="216.41,362.029 209.339,364.444 205.229,356.69 212.2,352.513 		
			"/>
		<g>
			<path style="fill:#407BFF;" d="M215.105,357.381l-8.557,4.592c0,0-32.325-56.84-37.298-56.368
				c-4.972,0.472-52.13,30.529-66.512,19.429c-14.38-11.09-0.387-44.517-0.387-44.517s28.099-10.68,31.325-4.142
				c0.627,1.264,3.12,5.975,3.782,8.151c0.634,2.049,1.114,3.776,1.114,3.776s0.01-0.001,0.018-0.013
				c0.907-0.366,30.29-12.415,43.409-5.957C195.325,288.902,215.105,357.381,215.105,357.381z"/>
			<path style="opacity:0.3;fill:#FFFFFF;enable-background:new    ;" d="M215.105,357.381l-8.557,4.592
				c0,0-32.325-56.84-37.298-56.368c-4.972,0.472-52.13,30.529-66.512,19.429c-14.38-11.09-0.387-44.517-0.387-44.517
				s28.099-10.68,31.325-4.142c0.627,1.264,3.12,5.975,3.782,8.151c0.634,2.049,1.114,3.776,1.114,3.776s0.01-0.001,0.018-0.013
				c0.907-0.366,30.29-12.415,43.409-5.957C195.325,288.902,215.105,357.381,215.105,357.381z"/>
		</g>
		<polygon style="fill:#E4897B;" points="168.629,403.732 161.922,402.963 161.891,393.497 161.876,384.814 169.986,384.431 
			169.272,394.65 		"/>
		<polygon style="opacity:0.2;enable-background:new    ;" points="169.248,394.857 161.87,393.681 161.866,384.906 
			169.981,384.477 		"/>
		<polygon style="fill:#263238;" points="202.366,359.149 214.886,352.879 216.187,358.183 206.709,363.074 		"/>
		<g>
			<path style="fill:#407BFF;" d="M124.956,325.124c0,0,2.062-0.234,33.687-6.093c0,0,0.713,40.447,2.214,70.594l9.741,0.314
				c0,0,13.973-66.916,12.332-77.017c-1.641-10.101-13.666-11.47-13.666-11.47S148.388,317.67,124.956,325.124z"/>
			<path style="opacity:0.4;fill:#FFFFFF;enable-background:new    ;" d="M124.956,325.124c0,0,2.062-0.234,33.687-6.093
				c0,0,0.713,40.447,2.214,70.594l9.741,0.314c0,0,13.973-66.916,12.332-77.017c-1.641-10.101-13.666-11.47-13.666-11.47
				S148.388,317.67,124.956,325.124z"/>
			<path style="opacity:0.3;enable-background:new    ;" d="M124.956,325.124c0,0,2.062-0.234,33.687-6.093
				c0,0,0.713,40.447,2.214,70.594l9.741,0.314c0,0,13.973-66.916,12.332-77.017c-1.641-10.101-13.666-11.47-13.666-11.47
				S148.388,317.67,124.956,325.124z"/>
		</g>
		<polygon style="fill:#263238;" points="159.068,386.929 172.354,386.619 170.536,392.094 159.759,392.192 		"/>
		<path style="opacity:0.3;enable-background:new    ;" d="M138.572,288.302l-17.241,6.138c0,0,9.064-6.767,16.127-9.914
			C138.093,286.575,138.572,288.302,138.572,288.302z"/>
		<g>
			<g>
				<polygon style="fill:#263238;" points="101.242,278.121 100.989,283.238 133.304,276.388 132.551,270.735 				"/>
				<polygon style="opacity:0.2;enable-background:new    ;" points="101.242,278.121 100.989,283.238 133.304,276.388 
					132.551,270.735 				"/>
			</g>
			
				<rect x="110.183" y="275.068" transform="matrix(0.9832 -0.1824 0.1824 0.9832 -49.0612 24.9251)" style="fill:#407BFF;" width="1.636" height="8.332"/>
			
				<rect x="118.619" y="273.633" transform="matrix(0.9755 -0.2199 0.2199 0.9755 -57.7721 33.6363)" style="fill:#FFFFFF;" width="7.231" height="5.484"/>
			
				<rect x="129.837" y="270.223" transform="matrix(0.9832 -0.1823 0.1823 0.9832 -47.8359 28.4194)" style="fill:#407BFF;" width="1.636" height="8.332"/>
			
				<rect x="110.183" y="275.068" transform="matrix(0.9832 -0.1824 0.1824 0.9832 -49.0612 24.9251)" style="opacity:0.3;fill:#FFFFFF;enable-background:new    ;" width="1.636" height="8.332"/>
			
				<rect x="129.837" y="270.223" transform="matrix(0.9832 -0.1823 0.1823 0.9832 -47.8359 28.4194)" style="opacity:0.3;fill:#FFFFFF;enable-background:new    ;" width="1.636" height="8.332"/>
		</g>
		<path style="fill:#407BFF;" d="M232.652,381.656c-1.051-0.319-2.152-0.443-3.248-0.366l0,0c0,0-4.059-1.695-8.962-9.77
			l-4.189,0.551c-1.447,0.216-2.605,1.312-2.899,2.745c-0.043,0.195-0.056,0.396-0.039,0.596c0.181,1.006,0.427,1.998,0.736,2.972
			c0.807,3.079,3.8,9.511,3.8,9.511l0.684-0.278l-2.148-6.068c-0.72-2.063,1.791-0.32,3.119,1.678
			c1.328,1.998,3.211,3.933,7.688,2.241C232.41,383.468,234.474,382.393,232.652,381.656z"/>
		<path style="fill:#E4897B;" d="M219.376,369.375c0,0,6.729,10.218,10.029,11.915c0,0-3.704,2.96-8.641-1.817
			c-6.384-6.178-7.448-4.061-7.448-4.061s-0.096-2.401,0.169-3.619C213.995,369.447,219.376,369.375,219.376,369.375z"/>
		<path style="fill:#407BFF;" d="M178.667,415.627c-0.945-0.559-1.985-0.941-3.068-1.126l0,0c0,0-3.541-2.609-6.389-11.616
			l-4.2-0.458c-1.457-0.134-2.842,0.657-3.467,1.979c-0.088,0.18-0.149,0.372-0.179,0.569c-0.062,1.02-0.059,2.043,0.01,3.062
			c0.054,3.183,1.437,10.141,1.437,10.141l0.731-0.108l-0.648-6.404c-0.21-2.175,1.816,0.114,2.632,2.369
			c0.816,2.256,2.186,4.582,6.937,4C178.001,417.329,180.262,416.775,178.667,415.627z"/>
		<path style="fill:#E4897B;" d="M168.682,400.548c0,0,4.114,11.523,6.917,13.954c0,0-4.3,1.998-7.963-3.814
			c-4.737-7.515-6.272-5.711-6.272-5.711s0.477-2.355,1.022-3.476C163.437,399.341,168.682,400.548,168.682,400.548z"/>
		<path style="fill:#263238;" d="M119.266,189.984c0,0-15.786-7.675-21.01,8.844c-5.224,16.519,1.472,27.926,1.472,27.926
			s18.267-4.684,33.655-1.415c0,0-3.324-14.077-2.525-22.163C131.656,195.091,119.266,189.984,119.266,189.984z"/>
		<g>
			<path style="fill:#407BFF;" d="M131.587,227.387c3.469,0.158,18.01,19.683,18.01,19.683l5.4-7.02c0,0,8.325,16.174,4.208,23.873
				s-25.82-13.346-25.82-13.346L131.587,227.387z"/>
			<path style="opacity:0.6;fill:#FFFFFF;enable-background:new    ;" d="M131.585,227.389l1.432,15.573l0.366,7.613
				c0,0,3.568,3.459,8.079,7.054c6.625,5.289,15.289,10.87,17.742,6.295c4.117-7.695-4.209-23.872-4.209-23.872l-5.398,7.018
				l-0.037-0.055C148.736,245.835,134.943,227.535,131.585,227.389z"/>
		</g>
		<path style="opacity:0.2;enable-background:new    ;" d="M133.017,242.962l0.366,7.613c0,0,3.568,3.459,8.079,7.054
			c0.43-9.141-8.079-22.453-8.079-22.453L133.017,242.962z"/>
		<path style="opacity:0.2;enable-background:new    ;" d="M149.596,247.07l-0.776,1.487l2.263,8.807c0,0-6.242-5.68-2.263-11.247
			L149.596,247.07z"/>
		<g>
			<path style="fill:#263238;" d="M133.41,244.81c0,0.24,0,0.49-0.01,0.74c-0.02,1.08-0.04,2.22-0.07,3.43c0,0.1,0,0.2-0.01,0.31
				c-0.02,0.65-0.03,1.32-0.05,2.01c0,0.12-0.01,0.23-0.01,0.35c-0.04,0.97-0.07,1.98-0.11,3.04c-0.01,0.14-0.01,0.28-0.02,0.42
				c-0.05,1.36-0.11,2.79-0.18,4.3c-0.16,3.39-0.35,7.15-0.59,11.32v0.01l-0.45,0.11l-30.55,7.24l-0.12,0.03
				c0,0,1.23-16.34-0.88-25.59c-0.02-0.08-0.03-0.16-0.06-0.24c-0.03-0.14-0.06-0.28-0.1-0.42c-0.07-0.26-0.14-0.52-0.2-0.79
				c-0.07-0.27-0.14-0.54-0.22-0.82c-0.27-0.99-0.56-2.02-0.87-3.1c-0.2-0.72-0.42-1.46-0.65-2.22c-0.04-0.13-0.08-0.25-0.12-0.38
				c-0.27-0.9-0.56-1.83-0.86-2.79c-0.09-0.28-0.17-0.55-0.26-0.84c-0.44-1.37-0.91-2.82-1.42-4.34c-0.56-1.71-1.17-3.53-1.84-5.45
				c3.51-1.12,7.07-2.01,10.69-2.68c0.51-0.1,1.03-0.19,1.55-0.28c0.55-0.1,1.1-0.19,1.64-0.27c2.74-0.44,5.51-0.75,8.28-0.95
				c1.11-0.08,2.22-0.14,3.33-0.18c0.67,0,1.36,0,2.05,0.02h0.28c0.67,0.02,1.33,0.04,1.98,0.06c0.31,0.01,0.62,0.03,0.93,0.04
				c0.2,0.01,0.39,0.02,0.59,0.03c0.21,0.01,0.43,0.02,0.64,0.03c0.36,0.02,0.7,0.04,1.04,0.06c0.26,0.02,0.51,0.03,0.76,0.05
				c0.49,0.03,0.95,0.06,1.37,0.09c0.19,0.02,0.37,0.03,0.54,0.05c0.17,0.01,0.33,0.02,0.48,0.03c0.16,0.02,0.3,0.03,0.44,0.04
				c0.13,0.01,0.25,0.02,0.36,0.03c0.5,0.04,0.81,0.07,0.87,0.08c0,0,0,0,0.01,0.01c0,0,0.03,0,0.08,0.05l0.07,0.07
				c0.05,0.06,0.11,0.14,0.17,0.26c0.18,0.33,0.41,0.94,0.65,2.05c0.04,0.2,0.08,0.42,0.13,0.66c0.06,0.35,0.12,0.75,0.19,1.19
				c0.05,0.31,0.09,0.64,0.13,1c0.03,0.32,0.07,0.65,0.1,1.01C133.35,236.26,133.47,239.8,133.41,244.81z"/>
		</g>
		<path style="fill:#E4897B;" d="M116.817,233.309c-7.274-0.933-9.461-4.044-9.461-4.044c2.974-2.8,2.434-6.936,1.674-9.516
			c-0.412-1.427-0.897-2.379-0.897-2.379l8.756,1.638c-0.229,1.446-0.329,2.663-0.339,3.687c-0.018,1.125,0.082,2.013,0.247,2.708
			c0.595,2.617,2.086,2.653,2.086,2.653C120.422,230.93,116.817,233.309,116.817,233.309z"/>
		<path style="opacity:0.2;enable-background:new    ;" d="M116.551,222.695c-0.018,1.125,0.082,2.013,0.247,2.708
			c-3.477-0.458-6.112-3.239-7.768-5.655c-0.412-1.427-0.897-2.379-0.897-2.379l8.756,1.638
			C116.661,220.453,116.56,221.67,116.551,222.695z"/>
		<g>
			<g>
				<path style="fill:#E4897B;" d="M118.884,194.44c8.057,1.644,9.77,6.487,8.666,14.91c-1.379,10.526-5.184,17.429-14.806,13.157
					C99.677,216.706,105.504,191.71,118.884,194.44z"/>
				<path style="fill:#DE5753;" d="M122.434,207.837c0,0,0.687,2.332,1.663,3.82c0,0-0.913,0.955-2.31,0.478L122.434,207.837z"/>
				
					<path style="fill:none;stroke:#263238;stroke-width:0.7247;stroke-linecap:round;stroke-linejoin:round;stroke-miterlimit:10;" d="
					M118.691,200.592c0,0-2.204-0.756-3.743,0.505"/>
				
					<path style="fill:none;stroke:#263238;stroke-width:0.7247;stroke-linecap:round;stroke-linejoin:round;stroke-miterlimit:10;" d="
					M124.617,201.446c0,0,1.531-0.237,3.076,1.317"/>
				<path style="fill:#263238;" d="M107.308,206.223c0,0,5.118-5.851,5.59-11.078c0,0,17.297-3.265,14.778,13.102
					c0,0,4.496-14.072-9.288-17.218c-13.763-3.142-17.86,17.128-11.939,24.624C106.448,215.653,104.132,209.887,107.308,206.223z"/>
				<path style="fill:#E4897B;" d="M108.277,208.192c0.211-1.308-0.68-3.777-3.146-4.006c-2.552-0.237-4.788,4.646,1.171,7.145
					C107.156,211.69,107.837,210.921,108.277,208.192z"/>
				<g>
					<path style="fill:#263238;" d="M121.564,214.551c-0.791,0.764-1.893,2.344-1.893,2.344c-0.161-0.074-0.322-0.148-0.479-0.231
						c-2.16-1.06-2.811-2.265-2.879-3.279c-0.035-0.555,0.113-1.057,0.283-1.441c0.192-0.447,0.431-0.721,0.431-0.721
						c0.809,1.246,2.746,2.389,3.807,2.956C121.275,214.421,121.564,214.551,121.564,214.551z"/>
					<path style="fill:#FFFFFF;" d="M120.834,214.179l-0.576,0.676c-2.032-1.003-3.327-1.982-3.662-2.911
						c0.192-0.447,0.431-0.721,0.431-0.721C117.837,212.469,119.774,213.612,120.834,214.179z"/>
					<path style="fill:#DE5753;" d="M119.192,216.664c-2.16-1.06-2.811-2.265-2.879-3.279c0.722,0.389,1.549,0.939,2.165,1.652
						C118.951,215.58,119.136,216.15,119.192,216.664z"/>
				</g>
				<path style="fill:#263238;" d="M118.593,195.014c0,0-5.951,12.595-14.264,10.722c-8.313-1.873,7.994-16.03,7.994-16.03
					s14.672-2.361,19.916,6.245c5.245,8.606-4.564,12.296-4.564,12.296S130.284,198.085,118.593,195.014z"/>
				<path style="fill:none;stroke:#263238;stroke-width:0.5;stroke-linecap:round;stroke-linejoin:round;stroke-miterlimit:10;" d="
					M118.704,194.056c0,0-0.862,9.253-8.115,11.082"/>
				<g>
					<path style="fill:#263238;" d="M117.723,206.609c-0.026,0.639-0.392,1.144-0.818,1.127s-0.751-0.549-0.725-1.188
						c0.026-0.639,0.392-1.144,0.818-1.127C117.424,205.437,117.749,205.969,117.723,206.609z"/>
					<path style="fill:#263238;" d="M116.819,205.444l1.412-0.49C118.231,204.954,117.492,206.096,116.819,205.444z"/>
				</g>
				<g>
					<path style="fill:#263238;" d="M125.676,206.794c-0.026,0.639-0.392,1.144-0.818,1.127c-0.426-0.017-0.751-0.549-0.725-1.189
						c0.026-0.639,0.392-1.144,0.818-1.127C125.377,205.623,125.702,206.155,125.676,206.794z"/>
					<path style="fill:#263238;" d="M124.772,205.629l1.412-0.49C126.184,205.14,125.445,206.282,124.772,205.629z"/>
				</g>
			</g>
		</g>
		<g>
			<path style="fill:#263238;" d="M136.882,240.282c-0.053,0.464,0.285,0.84,0.755,0.84H146c0.47,0,0.894-0.376,0.947-0.84
				l1.867-16.505c0.053-0.464-0.285-0.955-0.755-0.955h-8.363c-0.47,0-0.894,0.491-0.947,0.955L136.882,240.282z"/>
			<path style="opacity:0.5;fill:#FFFFFF;" d="M139.677,223.669l-1.892,16.664c-0.054,0.47,0.191,0.789,0.658,0.789h7.091
				c0.476,0,1.347-0.262,1.401-0.732l1.892-16.721c0.053-0.47-0.758-0.846-1.234-0.846h-7.091
				C140.035,222.823,139.73,223.199,139.677,223.669z"/>
		</g>
		<path style="fill:#E4897B;" d="M154.4,241.656l-4.359-7.396c0,0,0.013-3.889-0.368-4.804c-0.381-0.915-4.651-2.98-5.49-2.672
			c-0.839,0.308-1.144,7.937-0.381,8.964c0.762,1.027,3.431,2.171,3.431,2.171l-0.182,1.449l2.546,7.701L154.4,241.656z"/>
		<polygon style="fill:#407BFF;" points="156.154,240.818 154.705,239.369 147.842,247.07 148.82,250.12 		"/>
		<g>
			<path style="fill:#407BFF;" d="M121.332,225.339l-0.868,3.199l1.77,2.602l3.921,36.563l10.722-1.582
				c-0.736-28.491-1.047-28.641-5.132-38.893l-9.618-0.668L121.332,225.339z"/>
			<path style="opacity:0.6;fill:#FFFFFF;enable-background:new    ;" d="M121.332,225.339l-0.868,3.199l1.77,2.602l3.921,36.563
				l10.722-1.582c-0.736-28.491-1.047-28.641-5.132-38.893l-9.618-0.668L121.332,225.339z"/>
		</g>
		<g>
			<path style="fill:#407BFF;" d="M103.814,225.339l9.528,3.99L111,233.309l2.311,37.426l-14.443,4.221
				c0,0-10.481-27.5-5.109-43.816l9.46-2.734L103.814,225.339z"/>
			<path style="opacity:0.6;fill:#FFFFFF;enable-background:new    ;" d="M112.94,264.81l0.37,5.93l-6.44,1.88l-8,2.34
				c0,0-4.64-12.18-6.16-25.14c-0.77-6.51-0.75-13.22,1.05-18.68l9.46-2.73l0.59-3.07l9.53,3.99l-2.34,3.98l0.92,14.86
				L112.94,264.81z"/>
			<path style="opacity:0.2;enable-background:new    ;" d="M121.39,253.12c0,0-3.59,5.23-8.45,11.69c-1.88,2.5-3.95,5.18-6.07,7.81
				l-8,2.34c0,0-4.64-12.18-6.16-25.14c3.92-3.93,8.72-8.69,8.72-8.69s2.2,6.8,1.23,12.71l9.26-5.67l2.88-1.76L121.39,253.12z"/>
		</g>
		<path style="fill:#E4897B;" d="M113.575,248.896l9.908-7.774c0,0,1.5-4.171,2.103-4.895c0.603-0.724,9.291-3.93,10.014-4.016
			c0.724-0.086,0.044,7.118-1.086,8.342c-1.13,1.225-8.084,3.64-8.084,3.64l-10.375,9.77L113.575,248.896z"/>
		<g>
			<path style="fill:#407BFF;" d="M93.759,231.14c-5.818,2.915-8.406,35.777,1.698,41.452c10.104,5.674,25.203-19.966,25.203-19.966
				l-5.865-6.224c0,0-12.301,10.298-13.785,9.352c-1.485-0.946,0.204-11.01,0.204-11.01s1.729-3.046-1.91-7.832
				C95.663,232.125,93.759,231.14,93.759,231.14z"/>
			<path style="opacity:0.6;fill:#FFFFFF;enable-background:new    ;" d="M93.759,231.14c-5.818,2.915-8.406,35.777,1.698,41.452
				c10.104,5.674,25.203-19.966,25.203-19.966l-5.865-6.224c0,0-12.301,10.298-13.785,9.352c-1.485-0.946,0.204-11.01,0.204-11.01
				s1.729-3.046-1.91-7.832C95.663,232.125,93.759,231.14,93.759,231.14z"/>
		</g>
		<polygon style="fill:#407BFF;" points="120.774,254.908 122.53,253.853 115.941,244.193 113.522,245.542 		"/>
	</g>
</g>
</svg>
